<svg width="28" height="28" viewBox="0 0 28 28" fill="none" xmlns="http://www.w3.org/2000/svg">
<g clip-path="url(#clip0_876_1084)">
<path d="M28 18.6667V28H18.6667C17.0299 27.9983 15.4224 27.5663 14.0054 26.7472C12.5884 25.9281 11.4117 24.7508 10.5933 23.3333C11.4728 23.327 12.3494 23.2301 13.209 23.044C13.8637 23.8626 14.6942 24.5234 15.6389 24.9774C16.5837 25.4314 17.6185 25.6669 18.6667 25.6667H25.6667V18.6667C25.6664 17.6181 25.4301 16.5831 24.9753 15.6383C24.5204 14.6935 23.8588 13.8632 23.0393 13.209C23.227 12.3495 23.3255 11.473 23.3333 10.5933C24.7508 11.4117 25.9281 12.5884 26.7472 14.0054C27.5663 15.4224 27.9983 17.0299 28 18.6667ZM21 10.5C21 7.71523 19.8938 5.04451 17.9246 3.07538C15.9555 1.10625 13.2848 0 10.5 0C7.71523 0 5.04451 1.10625 3.07538 3.07538C1.10625 5.04451 0 7.71523 0 10.5L0 21H10.5C13.2838 20.9969 15.9527 19.8897 17.9212 17.9212C19.8897 15.9527 20.9969 13.2838 21 10.5ZM2.33333 10.5C2.33333 8.88479 2.8123 7.30584 3.70966 5.96284C4.60703 4.61984 5.88249 3.5731 7.37475 2.95498C8.86701 2.33687 10.5091 2.17514 12.0932 2.49025C13.6774 2.80537 15.1326 3.58317 16.2747 4.72529C17.4168 5.86742 18.1946 7.32258 18.5097 8.90676C18.8249 10.4909 18.6631 12.133 18.045 13.6252C17.4269 15.1175 16.3802 16.393 15.0372 17.2903C13.6942 18.1877 12.1152 18.6667 10.5 18.6667H2.33333V10.5Z" fill="#38AC3D"/>
</g>
<defs>
<clipPath id="clip0_876_1084">
<rect width="28" height="28" fill="white"/>
</clipPath>
</defs>
</svg>
