<svg width="26" height="26" viewBox="0 0 26 26" fill="none" xmlns="http://www.w3.org/2000/svg">
<g clip-path="url(#clip0_876_1055)">
<path d="M22.7498 17.4708V16.2499C22.7498 15.3879 22.4074 14.5613 21.7979 13.9518C21.1884 13.3423 20.3617 12.9999 19.4998 12.9999H14.0831V10.7249C15.3983 10.4564 16.567 9.70915 17.3626 8.62798C18.1581 7.54681 18.5239 6.20876 18.389 4.87322C18.2541 3.53768 17.6281 2.29982 16.6323 1.39961C15.6366 0.499396 14.3421 0.000976562 12.9998 0.000976562C11.6574 0.000976562 10.3629 0.499396 9.36718 1.39961C8.37145 2.29982 7.74544 3.53768 7.61053 4.87322C7.47561 6.20876 7.8414 7.54681 8.63697 8.62798C9.43254 9.70915 10.6012 10.4564 11.9164 10.7249V12.9999H6.49977C5.63781 12.9999 4.81116 13.3423 4.20167 13.9518C3.59218 14.5613 3.24977 15.3879 3.24977 16.2499V17.4708C2.22855 17.7345 1.33856 18.3615 0.746614 19.2345C0.154668 20.1074 -0.0985929 21.1662 0.0343044 22.2125C0.167202 23.2588 0.677133 24.2207 1.46851 24.918C2.2599 25.6152 3.27839 25.9999 4.3331 25.9999C5.3878 25.9999 6.4063 25.6152 7.19768 24.918C7.98907 24.2207 8.499 23.2588 8.63189 22.2125C8.76479 21.1662 8.51153 20.1074 7.91958 19.2345C7.32764 18.3615 6.43765 17.7345 5.41643 17.4708V16.2499C5.41643 15.9626 5.53057 15.687 5.73373 15.4838C5.9369 15.2807 6.21245 15.1665 6.49977 15.1665H11.9164V17.4708C10.8952 17.7345 10.0052 18.3615 9.41328 19.2345C8.82133 20.1074 8.56807 21.1662 8.70097 22.2125C8.83387 23.2588 9.3438 24.2207 10.1352 24.918C10.9266 25.6152 11.9451 25.9999 12.9998 25.9999C14.0545 25.9999 15.073 25.6152 15.8644 24.918C16.6557 24.2207 17.1657 23.2588 17.2986 22.2125C17.4315 21.1662 17.1782 20.1074 16.5863 19.2345C15.9943 18.3615 15.1043 17.7345 14.0831 17.4708V15.1665H19.4998C19.7871 15.1665 20.0626 15.2807 20.2658 15.4838C20.469 15.687 20.5831 15.9626 20.5831 16.2499V17.4708C19.5619 17.7345 18.6719 18.3615 18.0799 19.2345C17.488 20.1074 17.2347 21.1662 17.3676 22.2125C17.5005 23.2588 18.0105 24.2207 18.8018 24.918C19.5932 25.6152 20.6117 25.9999 21.6664 25.9999C22.7211 25.9999 23.7396 25.6152 24.531 24.918C25.3224 24.2207 25.8323 23.2588 25.9652 22.2125C26.0981 21.1662 25.8449 20.1074 25.2529 19.2345C24.661 18.3615 23.771 17.7345 22.7498 17.4708ZM9.74977 5.41654C9.74977 4.77375 9.94038 4.14539 10.2975 3.61093C10.6546 3.07647 11.1622 2.65991 11.756 2.41393C12.3499 2.16794 13.0034 2.10358 13.6338 2.22899C14.2642 2.35439 14.8433 2.66392 15.2979 3.11844C15.7524 3.57296 16.0619 4.15206 16.1873 4.78249C16.3127 5.41293 16.2484 6.0664 16.0024 6.66026C15.7564 7.25412 15.3398 7.7617 14.8054 8.11881C14.2709 8.47593 13.6426 8.66654 12.9998 8.66654C12.1378 8.66654 11.3112 8.32413 10.7017 7.71463C10.0922 7.10514 9.74977 6.27849 9.74977 5.41654ZM6.49977 21.6665C6.49977 22.0951 6.37269 22.514 6.13462 22.8703C5.89654 23.2266 5.55815 23.5043 5.16225 23.6683C4.76634 23.8323 4.3307 23.8752 3.9104 23.7916C3.49011 23.708 3.10405 23.5016 2.80103 23.1986C2.49802 22.8956 2.29167 22.5095 2.20806 22.0892C2.12446 21.6689 2.16737 21.2333 2.33136 20.8374C2.49535 20.4415 2.77306 20.1031 3.12936 19.865C3.48567 19.6269 3.90457 19.4999 4.3331 19.4999C4.90773 19.4999 5.45884 19.7281 5.86516 20.1345C6.27149 20.5408 6.49977 21.0919 6.49977 21.6665ZM15.1664 21.6665C15.1664 22.0951 15.0394 22.514 14.8013 22.8703C14.5632 23.2266 14.2248 23.5043 13.8289 23.6683C13.433 23.8323 12.9974 23.8752 12.5771 23.7916C12.1568 23.708 11.7707 23.5016 11.4677 23.1986C11.1647 22.8956 10.9583 22.5095 10.8747 22.0892C10.7911 21.6689 10.834 21.2333 10.998 20.8374C11.162 20.4415 11.4397 20.1031 11.796 19.865C12.1523 19.6269 12.5712 19.4999 12.9998 19.4999C13.5744 19.4999 14.1255 19.7281 14.5318 20.1345C14.9382 20.5408 15.1664 21.0919 15.1664 21.6665ZM21.6664 23.8332C21.2379 23.8332 20.819 23.7061 20.4627 23.4681C20.1064 23.23 19.8287 22.8916 19.6647 22.4957C19.5007 22.0998 19.4578 21.6641 19.5414 21.2438C19.625 20.8236 19.8314 20.4375 20.1344 20.1345C20.4374 19.8315 20.8234 19.6251 21.2437 19.5415C21.664 19.4579 22.0997 19.5008 22.4956 19.6648C22.8915 19.8288 23.2299 20.1065 23.4679 20.4628C23.706 20.8191 23.8331 21.238 23.8331 21.6665C23.8331 22.2412 23.6048 22.7923 23.1985 23.1986C22.7922 23.6049 22.2411 23.8332 21.6664 23.8332Z" fill="#121D38"/>
</g>
<defs>
<clipPath id="clip0_876_1055">
<rect width="26" height="26" fill="white"/>
</clipPath>
</defs>
</svg>
