<svg width="86" height="86" viewBox="0 0 86 86" fill="none" xmlns="http://www.w3.org/2000/svg">
<path d="M30.7143 33.7857C39.1958 33.7857 46.0715 26.9101 46.0715 18.4286C46.0715 9.94705 39.1958 3.07141 30.7143 3.07141C22.2328 3.07141 15.3572 9.94705 15.3572 18.4286C15.3572 26.9101 22.2328 33.7857 30.7143 33.7857Z" stroke="white" stroke-linecap="round" stroke-linejoin="round"/>
<path d="M30.7144 76.7856H3.07153V73.4556C3.12044 68.7735 4.35525 64.1799 6.66062 60.1045C8.96603 56.029 12.2668 52.6043 16.2545 50.1503C20.2424 47.6962 24.7871 46.293 29.4642 46.0715C29.8812 46.0518 30.298 46.0415 30.7144 46.0406C31.1308 46.0415 31.5477 46.0518 31.9646 46.0715C36.6418 46.293 41.1865 47.6962 45.1743 50.1503C47.4674 51.5614 49.5333 53.2935 51.3135 55.2858" stroke="white" stroke-linecap="round" stroke-linejoin="round"/>
<path d="M82.9287 52.2142L58.3572 82.9285L46.0715 73.7142" stroke="white" stroke-linecap="round" stroke-linejoin="round"/>
</svg>
