<svg width="90" height="90" viewBox="0 0 90 90" fill="none" xmlns="http://www.w3.org/2000/svg">
<path d="M32.1428 35.3571C41.0188 35.3571 48.2143 28.1617 48.2143 19.2857C48.2143 10.4097 41.0188 3.21423 32.1428 3.21423C23.2668 3.21423 16.0714 10.4097 16.0714 19.2857C16.0714 28.1617 23.2668 35.3571 32.1428 35.3571Z" stroke="white" stroke-linecap="round" stroke-linejoin="round"/>
<path d="M41.7857 80.3571H3.21423V76.8722C3.26541 71.9723 4.55766 67.1651 6.97025 62.9001C9.3829 58.635 12.8372 55.0511 17.0104 52.4829C21.1837 49.9147 25.9398 48.4462 30.8345 48.2145C31.2708 48.1938 31.7071 48.183 32.1428 48.1821C32.5785 48.183 33.0148 48.1938 33.4512 48.2145C38.3459 48.4462 43.102 49.9147 47.2753 52.4829C49.6751 53.9597 51.8371 55.7723 53.7 57.8573" stroke="white" stroke-linecap="round" stroke-linejoin="round"/>
<path d="M54.6428 73.9285H86.7857" stroke="white" stroke-linecap="round" stroke-linejoin="round"/>
</svg>
