<svg width="84" height="84" viewBox="0 0 84 84" fill="none" xmlns="http://www.w3.org/2000/svg">
<path d="M30 39C38.2843 39 45 32.2843 45 24C45 15.7157 38.2843 9 30 9C21.7157 9 15 15.7157 15 24C15 32.2843 21.7157 39 30 39Z" stroke="#121D38" stroke-linecap="round" stroke-linejoin="round"/>
<path d="M3 81H30H57V77.7474C56.9522 73.1742 55.7461 68.6874 53.4944 64.707C51.2426 60.726 48.0186 57.381 44.1236 54.984C40.2285 52.587 35.7895 51.2164 31.2211 51.0001C30.8138 50.9809 30.4067 50.9708 30 50.97C29.5933 50.9708 29.1862 50.9809 28.7789 51.0001C24.2105 51.2164 19.7715 52.587 15.8764 54.984C11.9814 57.381 8.75742 60.726 6.50562 64.707C4.25386 68.6874 3.04777 73.1742 3 77.7474V81Z" stroke="#121D38" stroke-linecap="round" stroke-linejoin="round"/>
<path d="M54 39C62.2842 39 69 32.2843 69 24C69 15.7157 62.2842 9 54 9" stroke="#121D38" stroke-linecap="round" stroke-linejoin="round"/>
<path d="M69 81.0006H81V77.7474C80.952 73.1742 79.746 68.6874 77.4942 64.707C75.2424 60.726 72.0186 57.3811 68.1234 54.9842C65.6058 53.4347 62.8602 52.3141 60 51.657" stroke="#121D38" stroke-linecap="round" stroke-linejoin="round"/>
</svg>
