<svg width="18" height="19" viewBox="0 0 18 19" fill="none" xmlns="http://www.w3.org/2000/svg">
<g clip-path="url(#clip0_442_32)">
<path d="M15.2585 2.15754H13.0788V0.704346H11.6256V2.15754H5.81278V0.704346H4.35958V2.15754H2.17979C1.60168 2.15754 1.04724 2.3872 0.638446 2.79599C0.229656 3.20478 0 3.75922 0 4.33733L0 18.1427H17.4383V4.33733C17.4383 3.75922 17.2087 3.20478 16.7999 2.79599C16.3911 2.3872 15.8367 2.15754 15.2585 2.15754ZM1.45319 4.33733C1.45319 4.14463 1.52975 3.95981 1.66601 3.82355C1.80227 3.68729 1.98709 3.61073 2.17979 3.61073H15.2585C15.4512 3.61073 15.6361 3.68729 15.7723 3.82355C15.9086 3.95981 15.9851 4.14463 15.9851 4.33733V6.51712H1.45319V4.33733ZM1.45319 16.6895V7.97032H15.9851V16.6895H1.45319Z" fill="#F7D31D"/>
<path d="M12.3521 10.1501H10.8989V11.6033H12.3521V10.1501Z" fill="#F7D31D"/>
<path d="M9.44588 10.1501H7.99268V11.6033H9.44588V10.1501Z" fill="#F7D31D"/>
<path d="M6.53925 10.1501H5.08606V11.6033H6.53925V10.1501Z" fill="#F7D31D"/>
<path d="M12.3521 13.0566H10.8989V14.5098H12.3521V13.0566Z" fill="#F7D31D"/>
<path d="M9.44588 13.0566H7.99268V14.5098H9.44588V13.0566Z" fill="#F7D31D"/>
<path d="M6.53925 13.0566H5.08606V14.5098H6.53925V13.0566Z" fill="#F7D31D"/>
</g>
<defs>
<clipPath id="clip0_442_32">
<rect width="17.4383" height="17.4383" fill="white" transform="translate(0 0.704346)"/>
</clipPath>
</defs>
</svg>
