<svg width="19" height="19" viewBox="0 0 19 19" fill="none" xmlns="http://www.w3.org/2000/svg">
<g clip-path="url(#clip0_442_51)">
<path d="M14.5317 10.9038C14.5317 10.067 14.3253 9.24311 13.9308 8.50519C13.5362 7.76727 12.9657 7.1381 12.2698 6.67345C11.5739 6.20879 10.7741 5.92302 9.94128 5.84145C9.10848 5.75988 8.26843 5.88505 7.49558 6.20585C6.72274 6.52665 6.04099 7.03317 5.51075 7.68051C4.98052 8.32786 4.6182 9.09602 4.4559 9.91691C4.2936 10.7378 4.33634 11.5861 4.58033 12.3865C4.82433 13.1869 5.26203 13.9147 5.85465 14.5055L9.44549 18.0193L13.0422 14.5019C13.5162 14.0305 13.8919 13.4698 14.1476 12.8521C14.4033 12.2345 14.5338 11.5722 14.5317 10.9038ZM9.44549 15.9849L6.87625 13.4723C6.36841 12.9644 6.02248 12.3175 5.88216 11.6131C5.74185 10.9088 5.81344 10.1787 6.08791 9.51498C6.36237 8.8513 6.82738 8.28386 7.42419 7.88435C8.02101 7.48484 8.72284 7.27118 9.44103 7.27037C10.1592 7.26956 10.8615 7.48163 11.4593 7.87979C12.057 8.27795 12.5233 8.84434 12.7992 9.50739C13.0752 10.1704 13.1484 10.9004 13.0097 11.6051C12.871 12.3098 12.5265 12.9575 12.0198 13.4665L9.44549 15.9849ZM9.44549 8.71888C9.01437 8.71888 8.59293 8.84673 8.23447 9.08624C7.876 9.32576 7.59661 9.6662 7.43163 10.0645C7.26665 10.4628 7.22348 10.9011 7.30759 11.3239C7.39169 11.7468 7.5993 12.1352 7.90415 12.44C8.209 12.7449 8.5974 12.9525 9.02024 13.0366C9.44308 13.1207 9.88136 13.0775 10.2797 12.9125C10.678 12.7476 11.0184 12.4682 11.2579 12.1097C11.4974 11.7512 11.6253 11.3298 11.6253 10.8987C11.6253 10.3206 11.3956 9.76612 10.9868 9.35733C10.5781 8.94854 10.0236 8.71888 9.44549 8.71888ZM18.1647 8.02571V18.1646H11.3732L12.8605 16.7115H16.7115V8.02353C16.7119 7.91321 16.6869 7.80427 16.6385 7.70512C16.5902 7.60597 16.5197 7.51927 16.4325 7.4517L9.89308 2.33354C9.76528 2.23361 9.60772 2.17932 9.44549 2.17932C9.28327 2.17932 9.1257 2.23361 8.99791 2.33354L2.45853 7.45024C2.37126 7.51808 2.30072 7.60504 2.25234 7.70443C2.20397 7.80382 2.17906 7.91299 2.17952 8.02353V16.7115H6.03049L7.51638 18.1646H0.726326V8.02353C0.725455 7.6925 0.80037 7.36566 0.945332 7.06805C1.09029 6.77044 1.30146 6.50997 1.56264 6.30658L8.10202 1.18988C8.48564 0.889369 8.95891 0.726074 9.44622 0.726074C9.93354 0.726074 10.4068 0.889369 10.7904 1.18988L17.3298 6.30803C17.5907 6.51127 17.8016 6.77155 17.9463 7.06891C18.091 7.36627 18.1657 7.69282 18.1647 8.02353V8.02571Z" fill="#F7D31D"/>
</g>
<defs>
<clipPath id="clip0_442_51">
<rect width="17.4383" height="17.4383" fill="white" transform="translate(0.726562 0.726562)"/>
</clipPath>
</defs>
</svg>
