<svg width="32" height="32" viewBox="0 0 32 32" fill="none" xmlns="http://www.w3.org/2000/svg">
<g clip-path="url(#clip0_661_860)">
<path d="M26.6662 15.9998C25.8482 15.9996 25.0412 16.1879 24.3077 16.55C23.5743 16.9121 22.9341 17.4383 22.4368 18.0878L22.3435 18.0478C22.7102 16.9118 22.7652 15.6982 22.5027 14.5337C22.2401 13.3693 21.6698 12.2966 20.8512 11.4279C20.0325 10.5591 18.9956 9.92607 17.8488 9.59489C16.702 9.26371 15.4873 9.24652 14.3315 9.54513L14.2102 9.3158C15.1787 8.45409 15.7997 7.26878 15.9568 5.98199C16.114 4.6952 15.7965 3.39526 15.0638 2.3258C14.3312 1.25634 13.2337 0.490769 11.977 0.172559C10.7203 -0.145652 9.39069 0.00534276 8.23735 0.597245C7.08402 1.18915 6.18612 2.18133 5.71194 3.38784C5.23775 4.59435 5.21982 5.93238 5.66152 7.15116C6.10321 8.36995 6.9742 9.38582 8.11127 10.0084C9.24833 10.631 10.5734 10.8176 11.8382 10.5331L11.9355 10.7158C10.6022 11.7389 9.70536 13.2285 9.4249 14.8855C9.14445 16.5425 9.50119 18.2443 10.4235 19.6491L7.91017 21.9998C6.77413 21.3721 5.44819 21.1803 4.18083 21.4602C2.91346 21.7401 1.79166 22.4725 1.02563 23.5203C0.259608 24.568 -0.0980664 25.8591 0.0196363 27.1517C0.137339 28.4442 0.72234 29.6495 1.66502 30.5417C2.60769 31.4338 3.84334 31.9516 5.14042 31.9979C6.43749 32.0443 7.70697 31.6161 8.71095 30.7936C9.71494 29.971 10.3845 28.8106 10.5942 27.5298C10.804 26.2489 10.5394 24.9356 9.85017 23.8358L12.3008 21.5451C13.6468 22.4448 15.2745 22.8231 16.8793 22.6094C18.4841 22.3956 19.9559 21.6044 21.0195 20.3838L21.3915 20.5425C21.2301 21.6191 21.4021 22.7193 21.8842 23.6953C22.3664 24.6714 23.1357 25.4765 24.0888 26.0025C25.0419 26.5285 26.1332 26.7503 27.216 26.638C28.2989 26.5257 29.3214 26.0848 30.1463 25.3743C30.9712 24.6639 31.5589 23.7181 31.8305 22.6639C32.1022 21.6097 32.0447 20.4976 31.6658 19.477C31.287 18.4564 30.6048 17.5762 29.7111 16.9546C28.8174 16.333 27.7548 15.9999 26.6662 15.9998ZM7.99951 5.33313C7.99951 4.80571 8.1559 4.29014 8.44892 3.85161C8.74194 3.41308 9.15841 3.07128 9.64568 2.86945C10.133 2.66762 10.6691 2.61481 11.1864 2.7177C11.7037 2.8206 12.1789 3.07457 12.5518 3.44751C12.9247 3.82045 13.1787 4.29561 13.2816 4.81289C13.3845 5.33017 13.3317 5.86635 13.1299 6.35362C12.928 6.84089 12.5862 7.25736 12.1477 7.55038C11.7092 7.8434 11.1936 7.9998 10.6662 7.9998C9.95893 7.9998 9.28065 7.71884 8.78055 7.21875C8.28046 6.71865 7.99951 6.04037 7.99951 5.33313ZM5.33284 29.3331C4.80542 29.3331 4.28985 29.1767 3.85132 28.8837C3.41279 28.5907 3.07099 28.1742 2.86916 27.687C2.66733 27.1997 2.61452 26.6635 2.71741 26.1462C2.8203 25.6289 3.07428 25.1538 3.44722 24.7808C3.82016 24.4079 4.29531 24.1539 4.8126 24.051C5.32988 23.9481 5.86606 24.0009 6.35333 24.2028C6.8406 24.4046 7.25707 24.7464 7.55009 25.1849C7.84311 25.6235 7.99951 26.139 7.99951 26.6665C7.99951 27.3737 7.71855 28.052 7.21846 28.5521C6.71836 29.0522 6.04008 29.3331 5.33284 29.3331ZM15.9995 19.9998C15.1338 19.9981 14.2919 19.7156 13.6005 19.1946C12.909 18.6737 12.4052 17.9425 12.1647 17.1108C11.9243 16.2791 11.9601 15.3919 12.2669 14.5823C12.5737 13.7727 13.1349 13.0846 13.8662 12.6211L14.4088 12.3318C14.9541 12.0946 15.5454 11.982 16.1397 12.0021C16.734 12.0222 17.3163 12.1746 17.8443 12.4481C18.3723 12.7216 18.8327 13.1094 19.1919 13.5833C19.5511 14.0571 19.8002 14.6051 19.921 15.1873C20.0418 15.7696 20.0312 16.3714 19.8901 16.949C19.749 17.5267 19.4809 18.0656 19.1053 18.5266C18.7296 18.9875 18.256 19.359 17.7187 19.6138C17.1814 19.8687 16.5941 20.0005 15.9995 19.9998ZM26.6662 23.9998C26.1388 23.9998 25.6232 23.8434 25.1847 23.5504C24.7461 23.2574 24.4043 22.8409 24.2025 22.3536C24.0007 21.8663 23.9478 21.3302 24.0507 20.8129C24.1536 20.2956 24.4076 19.8205 24.7806 19.4475C25.1535 19.0746 25.6286 18.8206 26.1459 18.7177C26.6632 18.6148 27.1994 18.6676 27.6867 18.8694C28.1739 19.0713 28.5904 19.4131 28.8834 19.8516C29.1764 20.2901 29.3328 20.8057 29.3328 21.3331C29.3328 22.0404 29.0519 22.7186 28.5518 23.2187C28.0517 23.7188 27.3734 23.9998 26.6662 23.9998Z" fill="#0DA3DE"/>
</g>
<defs>
<clipPath id="clip0_661_860">
<rect width="32" height="32" fill="white"/>
</clipPath>
</defs>
</svg>
