<svg width="26" height="26" viewBox="0 0 26 26" fill="none" xmlns="http://www.w3.org/2000/svg">
<g clip-path="url(#clip0_661_868)">
<path d="M22.7498 17.4706V16.2497C22.7498 15.3878 22.4074 14.5611 21.7979 13.9516C21.1884 13.3421 20.3617 12.9997 19.4998 12.9997H14.0831V10.7247C15.3983 10.4563 16.567 9.709 17.3626 8.62783C18.1582 7.54666 18.5239 6.2086 18.389 4.87307C18.2541 3.53753 17.6281 2.29966 16.6324 1.39945C15.6366 0.499244 14.3421 0.000823975 12.9998 0.000823975C11.6575 0.000823975 10.3629 0.499244 9.36721 1.39945C8.37148 2.29966 7.74547 3.53753 7.61056 4.87307C7.47564 6.2086 7.84143 7.54666 8.637 8.62783C9.43257 9.709 10.6012 10.4563 11.9165 10.7247V12.9997H6.4998C5.63784 12.9997 4.81119 13.3421 4.2017 13.9516C3.59221 14.5611 3.2498 15.3878 3.2498 16.2497V17.4706C2.22858 17.7343 1.33859 18.3614 0.746645 19.2343C0.154698 20.1072 -0.0985624 21.1661 0.0343349 22.2124C0.167232 23.2587 0.677163 24.2206 1.46854 24.9178C2.25993 25.615 3.27842 25.9997 4.33313 25.9997C5.38783 25.9997 6.40633 25.615 7.19771 24.9178C7.9891 24.2206 8.49903 23.2587 8.63192 22.2124C8.76482 21.1661 8.51156 20.1072 7.91961 19.2343C7.32767 18.3614 6.43768 17.7343 5.41646 17.4706V16.2497C5.41646 15.9624 5.5306 15.6869 5.73376 15.4837C5.93693 15.2805 6.21248 15.1664 6.4998 15.1664H11.9165V17.4706C10.8952 17.7343 10.0053 18.3614 9.41331 19.2343C8.82136 20.1072 8.5681 21.1661 8.701 22.2124C8.8339 23.2587 9.34383 24.2206 10.1352 24.9178C10.9266 25.615 11.9451 25.9997 12.9998 25.9997C14.0545 25.9997 15.073 25.615 15.8644 24.9178C16.6558 24.2206 17.1657 23.2587 17.2986 22.2124C17.4315 21.1661 17.1782 20.1072 16.5863 19.2343C15.9943 18.3614 15.1043 17.7343 14.0831 17.4706V15.1664H19.4998C19.7871 15.1664 20.0627 15.2805 20.2658 15.4837C20.469 15.6869 20.5831 15.9624 20.5831 16.2497V17.4706C19.5619 17.7343 18.6719 18.3614 18.08 19.2343C17.488 20.1072 17.2348 21.1661 17.3677 22.2124C17.5006 23.2587 18.0105 24.2206 18.8019 24.9178C19.5933 25.615 20.6118 25.9997 21.6665 25.9997C22.7212 25.9997 23.7397 25.615 24.531 24.9178C25.3224 24.2206 25.8324 23.2587 25.9653 22.2124C26.0982 21.1661 25.8449 20.1072 25.2529 19.2343C24.661 18.3614 23.771 17.7343 22.7498 17.4706ZM9.7498 5.41639C9.7498 4.7736 9.94041 4.14524 10.2975 3.61078C10.6546 3.07632 11.1622 2.65976 11.7561 2.41378C12.3499 2.16779 13.0034 2.10343 13.6338 2.22883C14.2643 2.35423 14.8434 2.66377 15.2979 3.11829C15.7524 3.57281 16.0619 4.1519 16.1873 4.78234C16.3127 5.41278 16.2484 6.06625 16.0024 6.66011C15.7564 7.25397 15.3399 7.76155 14.8054 8.11866C14.2709 8.47578 13.6426 8.66639 12.9998 8.66639C12.1378 8.66639 11.3112 8.32398 10.7017 7.71448C10.0922 7.10499 9.7498 6.27834 9.7498 5.41639ZM6.4998 21.6664C6.4998 22.0949 6.37272 22.5138 6.13465 22.8701C5.89657 23.2264 5.55818 23.5041 5.16228 23.6681C4.76637 23.8321 4.33073 23.875 3.91043 23.7914C3.49014 23.7078 3.10408 23.5015 2.80107 23.1985C2.49805 22.8954 2.2917 22.5094 2.2081 22.0891C2.12449 21.6688 2.1674 21.2331 2.33139 20.8372C2.49538 20.4413 2.77309 20.1029 3.12939 19.8649C3.4857 19.6268 3.9046 19.4997 4.33313 19.4997C4.90777 19.4997 5.45887 19.728 5.86519 20.1343C6.27152 20.5407 6.4998 21.0918 6.4998 21.6664ZM15.1665 21.6664C15.1665 22.0949 15.0394 22.5138 14.8013 22.8701C14.5632 23.2264 14.2248 23.5041 13.8289 23.6681C13.433 23.8321 12.9974 23.875 12.5771 23.7914C12.1568 23.7078 11.7707 23.5015 11.4677 23.1985C11.1647 22.8954 10.9584 22.5094 10.8748 22.0891C10.7912 21.6688 10.8341 21.2331 10.9981 20.8372C11.162 20.4413 11.4398 20.1029 11.7961 19.8649C12.1524 19.6268 12.5713 19.4997 12.9998 19.4997C13.5744 19.4997 14.1255 19.728 14.5319 20.1343C14.9382 20.5407 15.1665 21.0918 15.1665 21.6664ZM21.6665 23.8331C21.2379 23.8331 20.819 23.706 20.4627 23.4679C20.1064 23.2298 19.8287 22.8914 19.6647 22.4955C19.5007 22.0996 19.4578 21.664 19.5414 21.2437C19.625 20.8234 19.8314 20.4373 20.1344 20.1343C20.4374 19.8313 20.8235 19.625 21.2438 19.5414C21.6641 19.4578 22.0997 19.5007 22.4956 19.6646C22.8915 19.8286 23.2299 20.1063 23.468 20.4627C23.7061 20.819 23.8331 21.2379 23.8331 21.6664C23.8331 22.241 23.6049 22.7921 23.1985 23.1985C22.7922 23.6048 22.2411 23.8331 21.6665 23.8331Z" fill="#121D38"/>
</g>
<defs>
<clipPath id="clip0_661_868">
<rect width="26" height="26" fill="white"/>
</clipPath>
</defs>
</svg>
