<svg width="32" height="32" viewBox="0 0 32 32" fill="none" xmlns="http://www.w3.org/2000/svg">
<g clip-path="url(#clip0_661_864)">
<path d="M10.6667 26.8653V31.9999H21.3334V27.0866C21.3073 25.95 21.5235 24.821 21.9677 23.7745C22.4118 22.728 23.0737 21.7881 23.9094 21.0173C25.7333 19.4186 27.0299 17.3048 27.6284 14.9546C28.227 12.6043 28.0993 10.1278 27.2622 7.85149C26.4251 5.57521 24.918 3.60599 22.9394 2.2034C20.9608 0.800797 18.6036 0.0306522 16.1786 -0.00553038C13.7536 -0.041713 11.3745 0.657765 9.35493 2.00071C7.33537 3.34365 5.77014 5.26703 4.86553 7.51732C3.96093 9.76761 3.75942 12.2392 4.28757 14.6063C4.81571 16.9734 6.04871 19.1249 7.82406 20.7773C8.69367 21.5398 9.39537 22.4748 9.88471 23.5227C10.374 24.5707 10.6403 25.709 10.6667 26.8653ZM18.6667 29.3333H13.3334V26.8653C13.3334 26.7986 13.3241 26.7319 13.3227 26.6666H18.6881C18.6881 26.8066 18.6667 26.9453 18.6667 27.0866V29.3333ZM6.74673 10.7666C6.94495 9.27083 7.50284 7.84542 8.37261 6.6125C9.24238 5.37958 10.3981 4.37591 11.7407 3.68748C13.0834 2.99905 14.5729 2.6464 16.0817 2.65973C17.5904 2.67307 19.0735 3.05199 20.4038 3.76404C21.734 4.47609 22.8718 5.50003 23.7196 6.74814C24.5675 7.99624 25.1001 9.43128 25.2719 10.9303C25.4436 12.4293 25.2494 13.9477 24.7058 15.3552C24.1622 16.7627 23.2855 18.0175 22.1507 19.0119C20.6667 20.3406 19.604 22.0745 19.0934 23.9999H17.3334V14.4213C18.1106 14.1465 18.7839 13.6383 19.2613 12.9662C19.7386 12.2941 19.9966 11.4909 20.0001 10.6666H17.3334C17.3334 11.0202 17.1929 11.3594 16.9429 11.6094C16.6928 11.8595 16.3537 11.9999 16.0001 11.9999C15.6464 11.9999 15.3073 11.8595 15.0573 11.6094C14.8072 11.3594 14.6667 11.0202 14.6667 10.6666H12.0001C12.0035 11.4909 12.2615 12.2941 12.7388 12.9662C13.2162 13.6383 13.8895 14.1465 14.6667 14.4213V23.9999H12.9041C12.3027 22.0122 11.1749 20.2242 9.64007 18.8253C8.54612 17.8131 7.71205 16.5523 7.20843 15.1496C6.7048 13.7468 6.54644 12.2435 6.74673 10.7666Z" fill="#38AC3D"/>
</g>
<defs>
<clipPath id="clip0_661_864">
<rect width="32" height="32" fill="white"/>
</clipPath>
</defs>
</svg>
