<svg width="57" height="57" viewBox="0 0 57 57" fill="none" xmlns="http://www.w3.org/2000/svg">
<path d="M28.3566 46.8112H54.3719" stroke="#F7D31D" stroke-width="1.55647" stroke-linecap="round" stroke-linejoin="round"/>
<path d="M46.9387 39.3782L54.3719 46.8112L46.9387 54.244" stroke="#F7D31D" stroke-width="1.55647" stroke-linecap="round" stroke-linejoin="round"/>
<path d="M19.067 13.3643C22.1461 13.3643 24.6423 10.8681 24.6423 7.78897C24.6423 4.70982 22.1461 2.21368 19.067 2.21368C15.9878 2.21368 13.4917 4.70982 13.4917 7.78897C13.4917 10.8681 15.9878 13.3643 19.067 13.3643Z" stroke="#F7D31D" stroke-width="1.55647" stroke-linecap="round" stroke-linejoin="round"/>
<path d="M33.9318 31.9473C37.011 31.9473 39.5071 29.4511 39.5071 26.372C39.5071 23.2928 37.011 20.7967 33.9318 20.7967C30.8527 20.7967 28.3566 23.2928 28.3566 26.372C28.3566 29.4511 30.8527 31.9473 33.9318 31.9473Z" stroke="#F7D31D" stroke-width="1.55647" stroke-linecap="round" stroke-linejoin="round"/>
<path d="M22.7812 52.3873C25.8604 52.3873 28.3565 49.8911 28.3565 46.812C28.3565 43.7328 25.8604 41.2367 22.7812 41.2367C19.7021 41.2367 17.2059 43.7328 17.2059 46.812C17.2059 49.8911 19.7021 52.3873 22.7812 52.3873Z" stroke="#F7D31D" stroke-width="1.55647" stroke-linecap="round" stroke-linejoin="round"/>
<path d="M28.3567 26.3724H12.5616C6.91712 26.3724 2.34131 30.9483 2.34131 36.5928C2.34131 42.2373 6.91712 46.8132 12.5616 46.8132H17.2073" stroke="#F7D31D" stroke-width="1.55647" stroke-linecap="round" stroke-linejoin="round"/>
<path d="M39.5061 26.3717H45.0809C50.2124 26.3717 54.372 22.2119 54.372 17.0804C54.372 11.9491 50.2124 7.78925 45.0809 7.78925H24.6401" stroke="#F7D31D" stroke-width="1.55647" stroke-linecap="round" stroke-linejoin="round"/>
<path d="M13.4908 7.78925H2.34131" stroke="#F7D31D" stroke-width="1.55647" stroke-linecap="round" stroke-linejoin="round"/>
</svg>
