<svg width="63" height="63" viewBox="0 0 63 63" fill="none" xmlns="http://www.w3.org/2000/svg">
<path d="M37.666 35.9874C35.9491 37.9404 33.8593 39.5465 31.508 40.7049V47.3756C31.508 47.9653 31.2737 48.5309 30.8567 48.9476C30.4397 49.3648 29.8742 49.5991 29.2844 49.5991H15.9432C15.3536 49.5991 14.788 49.3648 14.371 48.9476C13.954 48.5309 13.7197 47.9653 13.7197 47.3756V40.7049C10.5198 39.1172 7.80324 36.7019 5.85196 33.7098C3.9007 30.7177 2.78589 27.2578 2.62329 23.6894C2.46068 20.121 3.25619 16.5741 4.92724 13.4169C6.59831 10.2597 9.08395 7.60738 12.1262 5.73525C15.1684 3.8631 18.6563 2.83939 22.2278 2.7704C25.2074 2.71283 28.1545 3.32152 30.8567 4.54291" stroke="#F7D31D" stroke-width="1.55647" stroke-linecap="round" stroke-linejoin="round"/>
<path d="M13.7196 60.5786H31.5079" stroke="#F7D31D" stroke-width="1.55647" stroke-linecap="round" stroke-linejoin="round"/>
<path d="M33.169 18.0377C31.6084 17.7662 31.6084 15.5258 33.169 15.2543C38.8228 14.2707 43.3196 9.96437 44.5468 4.35836L44.6409 3.92865C44.9783 2.38626 47.1747 2.37666 47.5256 3.91603L47.6399 4.41682C48.9126 9.99634 53.4104 14.2664 59.0488 15.2472C60.6173 15.5201 60.6173 17.7719 59.0488 18.0447C53.4104 19.0256 48.9126 23.2956 47.6399 28.8752L47.5256 29.3759C47.1747 30.9153 44.9783 30.9057 44.6409 29.3633L44.5468 28.9336C43.3196 23.3277 38.8228 19.0213 33.169 18.0377Z" stroke="#F7D31D" stroke-width="1.55647" stroke-linecap="round" stroke-linejoin="round"/>
</svg>
