<svg width="51" height="51" viewBox="0 0 51 51" fill="none" xmlns="http://www.w3.org/2000/svg">
<path d="M46.0284 35.6784C48.2389 35.6784 50.0307 37.4703 50.0307 39.6808V45.6843C50.0307 47.8948 48.2389 49.6867 46.0284 49.6867H6.0048C3.79434 49.6867 2.00244 47.8948 2.00244 45.6843V39.6808C2.00244 37.4703 3.79438 35.6784 6.0048 35.6784H46.0284Z" stroke="#F7D31D" stroke-width="1.55647" stroke-linecap="round" stroke-linejoin="round"/>
<path d="M26.0166 1.65845C28.227 1.65845 30.019 3.45038 30.019 5.6608V23.6714C30.019 25.8818 28.227 27.6738 26.0166 27.6738H5.73111C3.52069 27.6738 1.72876 25.8818 1.72876 23.6714L1.72876 5.6608C1.72876 3.45034 3.52069 1.65845 5.73111 1.65845H26.0166Z" stroke="#F7D31D" stroke-width="1.55647" stroke-linecap="round" stroke-linejoin="round"/>
<path d="M47.9043 1.65845C49.0098 1.65845 49.9055 2.55441 49.9055 3.65963V8.66257C49.9055 9.76778 49.0098 10.6637 47.9043 10.6637H40.0249C38.9198 10.6637 38.0237 9.76778 38.0237 8.66257V3.65963C38.0237 2.55441 38.9198 1.65845 40.0249 1.65845H47.9043Z" stroke="#F7D31D" stroke-width="1.55647" stroke-linecap="round" stroke-linejoin="round"/>
<path d="M47.9043 18.6685C49.0098 18.6685 49.9055 19.5644 49.9055 20.6696V25.6726C49.9055 26.7778 49.0098 27.6738 47.9043 27.6738H40.0249C38.9198 27.6738 38.0237 26.7778 38.0237 25.6726V20.6696C38.0237 19.5644 38.9198 18.6685 40.0249 18.6685H47.9043Z" stroke="#F7D31D" stroke-width="1.55647" stroke-linecap="round" stroke-linejoin="round"/>
</svg>
