<svg width="39" height="36" viewBox="0 0 39 36" fill="none" xmlns="http://www.w3.org/2000/svg">
<path d="M37.4086 16.6151L1.36077 16.6151C0.811086 16.6151 0.31402 16.9529 0.103559 17.4694C-0.106898 17.9872 0.00940857 18.5826 0.398477 18.9786L16.7214 35.5937C17.2531 36.1351 18.113 36.1351 18.6446 35.5937C19.1763 35.0523 19.1763 34.1773 18.6446 33.6359L4.64364 19.3843L37.4086 19.3843C38.1605 19.3843 38.7683 18.764 38.7683 17.9997C38.7683 17.2354 38.1605 16.6151 37.4086 16.6151Z" fill="#38AC3D"/>
<path d="M17.6837 -5.84091e-06C17.3361 -5.87129e-06 16.9872 0.135683 16.7214 0.405679L5.83847 11.4824C5.30679 12.0238 5.30679 12.8989 5.83847 13.4402C6.37016 13.9816 7.22999 13.9816 7.76167 13.4402L18.6446 2.36349C19.1763 1.82212 19.1763 0.947054 18.6446 0.405679C18.3801 0.135683 18.0312 -5.81053e-06 17.6837 -5.84091e-06Z" fill="#38AC3D"/>
</svg>
