<svg width="40" height="36" viewBox="0 0 40 36" fill="none" xmlns="http://www.w3.org/2000/svg">
<path d="M1.74419 19.3846H37.7921C38.3417 19.3846 38.8388 19.0468 39.0493 18.5303C39.2597 18.0125 39.1434 17.4171 38.7544 17.0211L22.4314 0.406032C21.8997 -0.135344 21.0399 -0.135344 20.5082 0.406032C19.9765 0.947408 19.9765 1.82247 20.5082 2.36385L34.5092 16.6155H1.74419C0.992358 16.6155 0.384521 17.2358 0.384521 18.0001C0.384521 18.7643 0.992358 19.3846 1.74419 19.3846Z" fill="#0DA3DE"/>
<path d="M21.469 35.9997C21.8166 35.9997 22.1655 35.8641 22.4313 35.5941L33.3142 24.5173C33.8459 23.9759 33.8459 23.1009 33.3142 22.5595C32.7826 22.0181 31.9227 22.0181 31.391 22.5595L20.5081 33.6362C19.9765 34.1776 19.9765 35.0527 20.5081 35.5941C20.7726 35.8641 21.1215 35.9997 21.469 35.9997Z" fill="#0DA3DE"/>
</svg>
