<svg width="12" height="12" viewBox="0 0 12 12" fill="none" xmlns="http://www.w3.org/2000/svg">
<g clip-path="url(#clip0_585_1186)">
<path d="M10.7827 4.72683L8.98072 2.92484C8.8931 2.84022 8.77575 2.79339 8.65395 2.79445C8.53215 2.79551 8.41563 2.84437 8.3295 2.9305C8.24337 3.01663 8.19451 3.13314 8.19345 3.25495C8.19239 3.37675 8.23922 3.4941 8.32384 3.58171L10.1258 5.38371C10.1794 5.43831 10.2262 5.49913 10.2652 5.56488C10.2582 5.56488 10.2527 5.56117 10.2457 5.56117L2.95967 5.57603C2.83646 5.57603 2.7183 5.62498 2.63118 5.7121C2.54406 5.79922 2.49512 5.91738 2.49512 6.04058C2.49512 6.16379 2.54406 6.28195 2.63118 6.36907C2.7183 6.45619 2.83646 6.50513 2.95967 6.50513L10.2429 6.49027C10.2559 6.49027 10.2666 6.48376 10.2791 6.48284C10.2379 6.56142 10.1857 6.63369 10.124 6.69746L8.32198 8.49945C8.27761 8.54231 8.24222 8.59357 8.21788 8.65024C8.19353 8.70692 8.18071 8.76788 8.18018 8.82956C8.17964 8.89124 8.1914 8.95242 8.21475 9.00951C8.23811 9.0666 8.27261 9.11847 8.31622 9.16209C8.35984 9.2057 8.41171 9.2402 8.4688 9.26356C8.52589 9.28691 8.58707 9.29867 8.64875 9.29813C8.71043 9.2976 8.77139 9.28478 8.82807 9.26043C8.88474 9.23609 8.936 9.2007 8.97886 9.15633L10.7809 7.35433C11.1292 7.00587 11.3249 6.53331 11.3249 6.04058C11.3249 5.54785 11.1292 5.0753 10.7809 4.72683H10.7827Z" fill="#EF2424"/>
<path d="M3.42959 10.6864H2.50049C2.13087 10.6864 1.77639 10.5396 1.51503 10.2782C1.25367 10.0169 1.10684 9.6624 1.10684 9.29278V2.78906C1.10684 2.41944 1.25367 2.06496 1.51503 1.8036C1.77639 1.54224 2.13087 1.39541 2.50049 1.39541H3.42959C3.5528 1.39541 3.67096 1.34647 3.75808 1.25935C3.8452 1.17223 3.89414 1.05407 3.89414 0.93086C3.89414 0.807653 3.8452 0.689493 3.75808 0.602372C3.67096 0.515252 3.5528 0.466309 3.42959 0.466309H2.50049C1.88468 0.467046 1.29431 0.712001 0.858869 1.14744C0.423427 1.58288 0.178472 2.17326 0.177734 2.78906L0.177734 9.29278C0.178472 9.90859 0.423427 10.499 0.858869 10.9344C1.29431 11.3698 1.88468 11.6148 2.50049 11.6155H3.42959C3.5528 11.6155 3.67096 11.5666 3.75808 11.4795C3.8452 11.3924 3.89414 11.2742 3.89414 11.151C3.89414 11.0278 3.8452 10.9096 3.75808 10.8225C3.67096 10.7354 3.5528 10.6864 3.42959 10.6864Z" fill="#EF2424"/>
</g>
<defs>
<clipPath id="clip0_585_1186">
<rect width="11.1492" height="11.1492" fill="white" transform="translate(0.177734 0.466309)"/>
</clipPath>
</defs>
</svg>
